<svg width="37" height="28" viewBox="0 0 37 28" fill="none" xmlns="http://www.w3.org/2000/svg">
    <path d="M36.7029 1L36.7029 27.1818H31.1674L31.1674 5.56392L19.943 5.56392V1L36.7029 1ZM5.79421 27.1818L0.32262 27.1818L0.32262 8.92614C0.32262 7.23864 0.701882 5.77273 1.4604 4.52841C2.2104 3.28409 3.25444 2.32528 4.59251 1.65199C5.93058 0.978693 7.48597 0.642045 9.2587 0.642045C10.8354 0.642045 12.2672 0.919034 13.5542 1.47301C14.8326 2.03551 15.8468 2.88778 16.5968 4.02983C17.3468 5.1804 17.7175 6.625 17.709 8.36364H12.199C12.182 7.6733 12.0414 7.08097 11.7772 6.58665C11.5044 6.10085 11.1337 5.72585 10.6649 5.46165C10.1877 5.20597 9.62518 5.07812 8.97745 5.07812C8.29563 5.07812 7.72035 5.22301 7.2516 5.51278C6.77432 5.81108 6.41211 6.24574 6.16495 6.81676C5.91779 7.38778 5.79421 8.09091 5.79421 8.92614L5.79421 27.1818Z" fill="white"/>
    <path d="M36.7029 1H37.7029V0H36.7029V1ZM36.7029 27.1818V28.1818H37.7029V27.1818H36.7029ZM31.1674 27.1818L30.1674 27.1818L30.1674 28.1818H31.1674V27.1818ZM31.1674 5.56392H32.1674V4.56392H31.1674V5.56392ZM19.943 5.56392H18.943V6.56392H19.943V5.56392ZM19.943 1V0H18.943V1H19.943ZM35.7029 1L35.7029 27.1818H37.7029L37.7029 1H35.7029ZM36.7029 26.1818H31.1674V28.1818L36.7029 28.1818V26.1818ZM32.1674 27.1818L32.1674 5.56392H30.1674L30.1674 27.1818L32.1674 27.1818ZM31.1674 4.56392L19.943 4.56392V6.56392L31.1674 6.56392V4.56392ZM20.943 5.56392V1H18.943V5.56392H20.943ZM19.943 2L36.7029 2V0L19.943 0V2ZM5.79421 27.1818V28.1818H6.79421V27.1818H5.79421ZM0.32262 27.1818H-0.67738V28.1818H0.32262V27.1818ZM1.4604 4.52841L2.31427 5.04892L2.31686 5.04463L1.4604 4.52841ZM4.59251 1.65199L5.042 2.54528L5.042 2.54528L4.59251 1.65199ZM13.5542 1.47301L13.9569 0.557667L13.9495 0.554497L13.5542 1.47301ZM16.5968 4.02983L17.4345 3.48375L17.4326 3.4809L16.5968 4.02983ZM17.709 8.36364V9.36364H18.7041L18.709 8.36854L17.709 8.36364ZM12.199 8.36364L11.1993 8.38832L11.2234 9.36364H12.199V8.36364ZM11.7772 6.58665L12.6591 6.11527L12.6542 6.10614L12.6491 6.09711L11.7772 6.58665ZM10.6649 5.46165L11.156 4.5905L11.1466 4.58523L11.1372 4.58017L10.6649 5.46165ZM7.2516 5.51278L6.72577 4.66218L6.7216 4.66479L7.2516 5.51278ZM6.16495 6.81676L5.24723 6.41954L5.24723 6.41954L6.16495 6.81676ZM5.79421 26.1818L0.32262 26.1818V28.1818L5.79421 28.1818V26.1818ZM1.32262 27.1818L1.32262 8.92614L-0.67738 8.92614L-0.67738 27.1818H1.32262ZM1.32262 8.92614C1.32262 7.39276 1.66559 6.11303 2.31426 5.04891L0.606545 4.00791C-0.261828 5.43243 -0.67738 7.08451 -0.67738 8.92614L1.32262 8.92614ZM2.31686 5.04463C2.96635 3.96707 3.86693 3.13655 5.042 2.54528L4.14302 0.758702C2.64195 1.51402 1.45446 2.60111 0.603949 4.01219L2.31686 5.04463ZM5.042 2.54528C6.21723 1.95392 7.6136 1.64205 9.2587 1.64205V-0.357955C7.35835 -0.357955 5.64392 0.00347054 4.14302 0.758702L5.042 2.54528ZM9.2587 1.64205C10.7165 1.64205 12.0115 1.89766 13.1588 2.39153L13.9495 0.554497C12.523 -0.0595875 10.9543 -0.357955 9.2587 -0.357955V1.64205ZM13.1514 2.38833C14.2573 2.8749 15.1193 3.60185 15.7609 4.57876L17.4326 3.4809C16.5742 2.17371 15.4079 1.19612 13.9569 0.557696L13.1514 2.38833ZM15.759 4.57591C16.3771 5.52403 16.7168 6.76386 16.709 8.35873L18.709 8.36854C18.7182 6.48615 18.3165 4.83676 17.4345 3.48375L15.759 4.57591ZM17.709 7.36364H12.199L12.199 9.36364H17.709L17.709 7.36364ZM13.1987 8.33895C13.1787 7.52812 13.012 6.77552 12.6591 6.11527L10.8952 7.05803C11.0707 7.38641 11.1853 7.81847 11.1993 8.38832L13.1987 8.33895ZM12.6491 6.09711C12.2901 5.45755 11.7901 4.9479 11.156 4.5905L10.1739 6.3328C10.4773 6.5038 10.7188 6.74415 10.9052 7.07618L12.6491 6.09711ZM11.1372 4.58017C10.4887 4.23277 9.75774 4.07812 8.97745 4.07812V6.07812C9.49262 6.07812 9.88666 6.17916 10.1927 6.34313L11.1372 4.58017ZM8.97745 4.07812C8.15384 4.07812 7.38615 4.25396 6.72578 4.66219L7.77742 6.36338C8.05455 6.19206 8.43742 6.07812 8.97745 6.07812V4.07812ZM6.7216 4.66479C6.05435 5.08181 5.56606 5.68292 5.24723 6.41954L7.08267 7.21398C7.25816 6.80856 7.49429 6.54035 7.7816 6.36078L6.7216 4.66479ZM5.24723 6.41954C4.93062 7.15101 4.79421 7.99848 4.79421 8.92614H6.79421C6.79421 8.18334 6.90496 7.62456 7.08267 7.21398L5.24723 6.41954ZM4.79421 8.92614L4.79421 27.1818H6.79421L6.79421 8.92614H4.79421Z" fill="black"/>
</svg>
    